<svg width="13" height="13" viewBox="0 0 13 13" fill="none" xmlns="http://www.w3.org/2000/svg">
<path d="M6.5 13C10.09 13 13 10.09 13 6.5C13 2.91005 10.09 0 6.5 0C2.91005 0 0 2.91005 0 6.5C0 10.09 2.91005 13 6.5 13ZM4.27894 4.15589C4.33009 4.12622 4.38598 4.11211 4.44123 4.11211C4.55345 4.11211 4.66288 4.17039 4.72311 4.2744L6.59206 5.98911L9.95818 2.62299C10.0217 2.5595 10.1049 2.52787 10.1881 2.52787C10.2713 2.52787 10.3545 2.5595 10.418 2.62299C10.5449 2.74975 10.5449 2.95578 10.418 3.08253L6.7524 6.7479C6.75108 6.74921 6.74937 6.74965 6.74805 6.75072C6.72941 6.76893 6.70886 6.78562 6.68523 6.79924C6.67635 6.80446 6.66659 6.80661 6.65727 6.81072C6.64819 6.81482 6.6397 6.81852 6.63042 6.82199C6.59509 6.83454 6.55892 6.84302 6.52275 6.84302C6.48526 6.84302 6.44909 6.83434 6.4142 6.82179C6.40551 6.81876 6.3975 6.8155 6.38906 6.81159C6.35416 6.79578 6.32146 6.77586 6.29349 6.74809C6.2933 6.74789 6.29306 6.7479 6.29286 6.74766C6.29198 6.74678 6.29178 6.7455 6.2909 6.74463C6.27226 6.72555 6.25517 6.70455 6.24127 6.68049L4.1604 4.59962C4.07053 4.4445 4.12359 4.24556 4.27894 4.15589Z" fill="#D6B247"/>
</svg>
