<svg width="38" height="24" viewBox="0 0 38 24" fill="none" xmlns="http://www.w3.org/2000/svg">
<path d="M24.5417 9.49932H24.5337C22.9457 5.68663 19.2058 3.16602 15.0417 3.16602C9.61563 3.16602 5.15538 7.3872 4.77694 12.7183C2.0805 13.0935 0 15.4115 0 18.2076C0 21.2635 2.48581 23.7493 5.54169 23.7493H24.5417C28.4699 23.7493 31.6667 20.5526 31.6667 16.6243C31.6667 12.6961 28.4699 9.49932 24.5417 9.49932Z" fill="white"/>
<path d="M30.8751 6.3333H30.8672C29.2791 2.52069 25.5393 0 21.3751 0C20.2984 0 19.2281 0.169442 18.1942 0.506691L15.7036 1.31738L18.2259 2.02194C21.2421 2.86588 23.8499 4.9115 25.3841 7.63644L25.5709 7.96894L25.9462 8.03069C30.1784 8.71943 33.2501 12.3342 33.2501 16.625C33.2501 17.3644 33.1456 18.126 32.9398 18.8907L32.4806 20.5992L34.0608 19.8044C36.4912 18.5804 38.0001 16.1484 38.0001 13.4583C38.0001 9.53005 34.8033 6.3333 30.8751 6.3333Z" fill="white"/>
</svg>
