<svg width="19" height="19" viewBox="0 0 19 19" fill="none" xmlns="http://www.w3.org/2000/svg">
<circle opacity="0.5" cx="9.5" cy="9.5" r="9" stroke="white"/>
<g opacity="0.5" clip-path="url(#clip0)">
<path d="M10.7383 13C9.63072 13 8.66385 12.3952 8.14416 11.5H10.75V10.5H7.78343C7.7559 10.337 7.73826 10.1707 7.73826 9.99999C7.73826 9.82931 7.7559 9.66298 7.78343 9.49999H10.75V8.49998H8.14416C8.66384 7.60477 9.6307 6.99999 10.7383 6.99999C11.1055 6.99999 11.4692 7.06884 11.8193 7.20458L12 6.27196C11.5342 6.09156 11.2295 6 10.7383 6C9.0633 6 7.62765 7.036 7.03278 8.5H6V9.50001H6.77302C6.75242 9.6642 6.73829 9.83033 6.73829 10C6.73829 10.1697 6.75242 10.3358 6.77302 10.5H6V11.5H7.03278C7.62765 12.964 9.0633 14 10.7383 14C11.2295 14 11.5342 13.9085 12 13.7281L11.8194 12.7954C11.4692 12.9312 11.1055 13 10.7383 13Z" fill="white"/>
</g>
<defs>
<clipPath id="clip0">
<rect width="8" height="8" fill="white" transform="translate(5 6)"/>
</clipPath>
</defs>
</svg>
