<svg width="10" height="13" viewBox="0 0 10 13" fill="none" xmlns="http://www.w3.org/2000/svg">
<path d="M4.66668 0C2.09352 0 0 1.94398 0 4.33334C0 5.05063 0.193129 5.76182 0.560273 6.39262L4.41148 12.8604C4.46275 12.9466 4.56045 13 4.66668 13C4.77291 13 4.87061 12.9466 4.92188 12.8604L8.7745 6.39049C9.14022 5.76182 9.33335 5.0506 9.33335 4.33332C9.33335 1.94398 7.23983 0 4.66668 0ZM4.66668 6.5C3.3801 6.5 2.33335 5.52802 2.33335 4.33334C2.33335 3.13866 3.3801 2.16668 4.66668 2.16668C5.95325 2.16668 7 3.13866 7 4.33334C7 5.52802 5.95325 6.5 4.66668 6.5Z" fill="#D6B247"/>
</svg>
