<svg width="19" height="19" viewBox="0 0 19 19" fill="none" xmlns="http://www.w3.org/2000/svg">
<circle cx="9.5" cy="9.5" r="9" stroke="white"/>
<path d="M9.50014 13.0638C9.47369 13.0638 9.44748 13.0631 9.42095 13.0618C8.95676 13.0382 8.57806 12.7602 8.4079 12.3181C8.27 11.9599 8.26847 11.4314 8.67733 11.0225L9.05539 10.6445H7.73864C7.33195 11.2305 7.23848 11.9737 7.50477 12.6657C7.81178 13.4634 8.52725 13.9855 9.37144 14.0283C9.41402 14.0305 9.457 14.0316 9.50014 14.0316C10.8787 14.0316 12.0001 12.9101 12.0001 11.5316H11.0324C11.0324 12.3764 10.3451 13.0638 9.50014 13.0638Z" fill="white"/>
<path d="M9.49997 5.96773C9.52642 5.96773 9.55263 5.96837 9.57916 5.96975C10.0433 5.99329 10.4221 6.27127 10.5922 6.71344C10.7301 7.07158 10.7316 7.60013 10.3228 8.00899L9.94472 8.38705H11.2615C11.6682 7.80109 11.7617 7.05788 11.4953 6.36587C11.1883 5.56822 10.4729 5.04605 9.62867 5.00331C9.58601 5.00113 9.54311 5 9.49997 5C8.12144 5 7 6.12152 7 7.49997H7.96773C7.96773 6.65506 8.65506 5.96773 9.49997 5.96773Z" fill="white"/>
<path d="M11.7984 9.84961H7.20166V10.4842H11.7984V9.84961Z" fill="white"/>
<path d="M11.7984 8.54785H7.20166V9.18244H11.7984V8.54785Z" fill="white"/>
</svg>
