<svg width="19" height="19" viewBox="0 0 19 19" fill="none" xmlns="http://www.w3.org/2000/svg">
<circle opacity="0.5" cx="9.5" cy="9.5" r="9" stroke="white"/>
<path opacity="0.5" d="M11.9999 11.5391C12.0052 10.6688 11.7191 9.98057 11.1483 9.49453C10.7075 9.12031 10.1725 8.9251 9.65503 8.73752C8.57711 8.34468 8.26442 8.13776 8.26442 7.51807C8.26442 6.8278 9.01062 6.5822 9.64941 6.5822C10.1146 6.5822 10.6499 6.75609 10.9823 7.01379L11.6412 5.78687C11.2068 5.44831 10.6123 5.21738 10.0252 5.1457V4H8.80953V5.22604C7.72895 5.51181 7.04823 6.36084 7.04823 7.51807C7.04823 8.32852 7.32837 8.97124 7.87929 9.42457C8.2983 9.77066 8.80932 9.95649 9.30296 10.1364C10.3602 10.5206 10.7896 10.7547 10.7847 11.53L10.7847 11.5357C10.7847 12.1865 10.0673 12.4178 9.45278 12.4178C8.87226 12.4178 8.24097 12.1119 7.88312 11.6572L7 12.6614C7.45318 13.2376 8.1116 13.645 8.80951 13.8047V15H10.0252V13.8304C11.2259 13.6238 11.9987 12.7547 11.9999 11.5391Z" fill="white"/>
</svg>
